<svg width="78" height="60" viewBox="0 0 78 60" fill="none" xmlns="http://www.w3.org/2000/svg">
<path d="M73.0451 0.608887H4.29069C1.96665 0.608887 0.0761414 2.49973 0.0761414 4.82344V55.7028C0.0761414 58.0265 1.96665 59.917 4.29069 59.917H73.0454C75.3691 59.917 77.26 58.0265 77.26 55.7028V4.82344C77.2596 2.49973 75.3688 0.608887 73.0451 0.608887ZM35.0912 54.9263H5.06693V33.1794H35.0912V54.9263ZM72.2688 54.9263H40.0819V28.1886H5.06693V18.937H72.2688V54.9263ZM72.2688 13.9463H5.06693V5.59967H72.2688V13.9463ZM8.84562 10.1822C8.84562 9.08989 9.72998 8.20486 10.8223 8.20486C11.9136 8.20486 12.7986 9.08989 12.7986 10.1822C12.7986 11.2745 11.9136 12.1579 10.8223 12.1579C9.72998 12.1579 8.84562 11.2745 8.84562 10.1822ZM15.2481 10.1822C15.2481 9.08989 16.1332 8.20486 17.2248 8.20486C18.3165 8.20486 19.2015 9.08989 19.2015 10.1822C19.2015 11.2745 18.3165 12.1579 17.2248 12.1579C16.1332 12.1579 15.2481 11.2745 15.2481 10.1822ZM31.3258 40.078H8.43604V36.7508H31.3254L31.3258 40.078ZM31.3258 46.067H8.43604V42.7398H31.3254L31.3258 46.067ZM31.3258 52.0559H8.43604V48.7287H31.3254L31.3258 52.0559Z" fill="#44BEC8"/>
</svg>
