<svg width="175" height="178" viewBox="0 0 175 178" fill="none" xmlns="http://www.w3.org/2000/svg">
<path d="M87.6681 167.577C130.374 167.577 164.994 132.533 164.994 89.3039C164.994 46.0751 130.374 11.0312 87.6681 11.0312C44.9619 11.0312 10.3417 46.0751 10.3417 89.3039C10.3417 132.533 44.9619 167.577 87.6681 167.577Z" fill="#0E4D6C"/>
<path d="M174.96 89.3041C174.96 138.104 135.878 177.664 87.6681 177.664C39.4586 177.664 0.376465 138.104 0.376465 89.3041C0.376465 40.5041 39.4586 0.944092 87.6681 0.944092C135.878 0.944092 174.96 40.5041 174.96 89.3041ZM2.12268 89.3041C2.12268 137.128 40.4223 175.897 87.6681 175.897C134.914 175.897 173.213 137.128 173.213 89.3041C173.213 41.4801 134.914 2.7121 87.6681 2.7121C40.4223 2.7121 2.12268 41.4801 2.12268 89.3041Z" fill="#F05833"/>
<path d="M7.16118 15.7471C5.67215 15.7471 4.45331 15.1291 3.50465 13.8931C2.568 12.6571 2.09967 11.1031 2.09967 9.23109C2.09967 7.38309 2.568 5.8351 3.50465 4.5871C4.46532 3.3391 5.68416 2.71509 7.16118 2.71509C8.6262 2.71509 9.83904 3.3391 10.7997 4.5871C11.7484 5.8231 12.2227 7.37109 12.2227 9.23109C12.2227 11.1031 11.7484 12.6571 10.7997 13.8931C9.85105 15.1291 8.63821 15.7471 7.16118 15.7471ZM4.11708 13.3351C4.93364 14.4151 5.94834 14.9551 7.16118 14.9551C8.38603 14.9551 9.39473 14.4151 10.1873 13.3351C10.9918 12.2431 11.3941 10.8751 11.3941 9.23109C11.3941 7.57509 10.9918 6.2131 10.1873 5.1451C9.39473 4.0531 8.38603 3.5071 7.16118 3.5071C5.93633 3.5071 4.92164 4.0531 4.11708 5.1451C3.32453 6.2251 2.92825 7.58709 2.92825 9.23109C2.92825 10.8631 3.32453 12.2311 4.11708 13.3351ZM18.8343 15.5311H18.0057V3.83109L15.0877 5.6131V4.76709L18.0598 2.93109H18.8343V15.5311Z" fill="#34323D"/>
</svg>
