<svg width="177" height="178" viewBox="0 0 177 178" fill="none" xmlns="http://www.w3.org/2000/svg">
<path d="M176.527 89.3041C176.527 138.104 137.446 177.664 89.2355 177.664C41.026 177.664 1.94489 138.104 1.94489 89.3041C1.94489 40.5041 41.026 0.944092 89.2355 0.944092C137.446 0.944092 176.527 40.5041 176.527 89.3041ZM3.69008 89.3041C3.69008 137.128 41.9907 175.897 89.2355 175.897C136.481 175.897 174.782 137.128 174.782 89.3041C174.782 41.4801 136.481 2.7121 89.2355 2.7121C41.9907 2.7121 3.69008 41.4801 3.69008 89.3041Z" fill="#F05833"/>
<path d="M89.2355 167.577C131.942 167.577 166.562 132.533 166.562 89.3039C166.562 46.0751 131.942 11.0312 89.2355 11.0312C46.5293 11.0312 11.9091 46.0751 11.9091 89.3039C11.9091 132.533 46.5293 167.577 89.2355 167.577Z" fill="#0E4D6C"/>
<path d="M5.92865 16.2161C4.43962 16.2161 3.22078 15.5981 2.27212 14.3621C1.33547 13.1261 0.867157 11.5721 0.867157 9.70007C0.867157 7.85207 1.33547 6.30408 2.27212 5.05608C3.23279 3.80808 4.45163 3.18408 5.92865 3.18408C7.39367 3.18408 8.60653 3.80808 9.56719 5.05608C10.5159 6.29208 10.9902 7.84007 10.9902 9.70007C10.9902 11.5721 10.5159 13.1261 9.56719 14.3621C8.61854 15.5981 7.40568 16.2161 5.92865 16.2161ZM2.88455 13.8041C3.70111 14.8841 4.71581 15.4241 5.92865 15.4241C7.1535 15.4241 8.16222 14.8841 8.95477 13.8041C9.75933 12.7121 10.1616 11.3441 10.1616 9.70007C10.1616 8.04407 9.75933 6.68207 8.95477 5.61407C8.16222 4.52207 7.1535 3.97607 5.92865 3.97607C4.7038 3.97607 3.68911 4.52207 2.88455 5.61407C2.092 6.69407 1.6957 8.05607 1.6957 9.70007C1.6957 11.3321 2.092 12.7001 2.88455 13.8041ZM22.4651 16.0001H13.9993L14.0173 15.3521L18.4663 11.0501C19.451 10.1021 20.1355 9.34008 20.5198 8.76408C20.916 8.16408 21.1142 7.48607 21.1142 6.73007C21.1142 5.91407 20.826 5.25408 20.2496 4.75008C19.6732 4.23408 18.9167 3.97607 17.98 3.97607C16.6111 3.97607 15.3742 4.57007 14.2694 5.75807V4.73207C15.3021 3.70007 16.563 3.18408 18.0521 3.18408C19.1808 3.18408 20.1175 3.50808 20.862 4.15608C21.5945 4.80408 21.9608 5.64407 21.9608 6.67607C21.9608 7.51607 21.7506 8.27208 21.3303 8.94408C20.898 9.64008 20.1776 10.4741 19.1689 11.4461L15.2782 15.2261H22.4651V16.0001Z" fill="#34323D"/>
</svg>
