<svg width="177" height="178" viewBox="0 0 177 178" fill="none" xmlns="http://www.w3.org/2000/svg">
<path d="M176.095 89.3041C176.095 138.104 137.013 177.664 88.8029 177.664C40.5935 177.664 1.51129 138.104 1.51129 89.3041C1.51129 40.5041 40.5935 0.944092 88.8029 0.944092C137.013 0.944092 176.095 40.5041 176.095 89.3041ZM3.2575 89.3041C3.2575 137.128 41.5571 175.897 88.8029 175.897C136.049 175.897 174.349 137.128 174.349 89.3041C174.349 41.4801 136.049 2.7121 88.8029 2.7121C41.5571 2.7121 3.2575 41.4801 3.2575 89.3041Z" fill="#F05833"/>
<path d="M88.8039 167.577C131.51 167.577 166.13 132.533 166.13 89.3039C166.13 46.0751 131.51 11.0312 88.8039 11.0312C46.0977 11.0312 11.4775 46.0751 11.4775 89.3039C11.4775 132.533 46.0977 167.577 88.8039 167.577Z" fill="#0E4D6C"/>
<path d="M5.54111 16.2161C4.05208 16.2161 2.83324 15.5981 1.88458 14.3621C0.947931 13.1261 0.479553 11.5721 0.479553 9.70007C0.479553 7.85207 0.947931 6.30408 1.88458 5.05608C2.84525 3.80808 4.06409 3.18408 5.54111 3.18408C7.00613 3.18408 8.21896 3.80808 9.17963 5.05608C10.1283 6.29208 10.6026 7.84007 10.6026 9.70007C10.6026 11.5721 10.1283 13.1261 9.17963 14.3621C8.23097 15.5981 7.01814 16.2161 5.54111 16.2161ZM2.49701 13.8041C3.31357 14.8841 4.32827 15.4241 5.54111 15.4241C6.76597 15.4241 7.77465 14.8841 8.5672 13.8041C9.37176 12.7121 9.77404 11.3441 9.77404 9.70007C9.77404 8.04407 9.37176 6.68207 8.5672 5.61407C7.77465 4.52207 6.76597 3.97607 5.54111 3.97607C4.31626 3.97607 3.30157 4.52207 2.49701 5.61407C1.70446 6.69407 1.30813 8.05607 1.30813 9.70007C1.30813 11.3321 1.70446 12.7001 2.49701 13.8041ZM17.1602 16.2161C15.7191 16.2161 14.5123 15.9101 13.5397 15.2981V14.3981C14.4883 15.0821 15.6712 15.4241 17.0881 15.4241C18.1329 15.4241 19.0455 15.1241 19.826 14.5241C20.6065 13.9241 20.9969 13.1141 20.9969 12.0941C20.9969 11.1461 20.6486 10.3781 19.9521 9.79007C19.2556 9.19007 18.343 8.89008 17.2142 8.89008C16.8179 8.89008 16.3976 8.93807 15.9533 9.03407V8.44008L20.2403 4.17407H14.116V3.40007H21.3931V4.01207L17.2322 8.18808C18.4691 8.18808 19.5438 8.53607 20.4564 9.23207C21.3691 9.91607 21.8254 10.8701 21.8254 12.0941C21.8254 13.3061 21.3811 14.3021 20.4925 15.0821C19.6159 15.8381 18.5051 16.2161 17.1602 16.2161Z" fill="#34323D"/>
</svg>
