<svg width="175" height="178" viewBox="0 0 175 178" fill="none" xmlns="http://www.w3.org/2000/svg">
<path d="M174.663 89.3041C174.663 138.104 135.586 177.664 87.3724 177.664C39.1589 177.664 0.0817871 138.104 0.0817871 89.3041C0.0817871 40.5041 39.1589 0.944092 87.3724 0.944092C135.586 0.944092 174.663 40.5041 174.663 89.3041ZM1.82299 89.3041C1.82299 137.128 40.1296 175.897 87.3724 175.897C134.615 175.897 172.922 137.128 172.922 89.3041C172.922 41.4801 134.615 2.7121 87.3724 2.7121C40.1296 2.7121 1.82299 41.4801 1.82299 89.3041Z" fill="#F05833"/>
<path d="M87.3724 167.577C130.079 167.577 164.699 132.533 164.699 89.3039C164.699 46.0751 130.079 11.0312 87.3724 11.0312C44.6662 11.0312 10.046 46.0751 10.046 89.3039C10.046 132.533 44.6662 167.577 87.3724 167.577Z" fill="#0E4D6C"/>
<path d="M6.49617 16.2161C5.00514 16.2161 3.78439 15.5981 2.83373 14.3621C1.90309 13.1261 1.43274 11.5721 1.43274 9.70007C1.43274 7.85207 1.90309 6.30408 2.83373 5.05608C3.7944 3.80808 5.01515 3.18408 6.49617 3.18408C7.95718 3.18408 9.16803 3.80808 10.1287 5.05608C11.0793 6.29208 11.5497 7.84007 11.5497 9.70007C11.5497 11.5721 11.0793 13.1261 10.1287 14.3621C9.17803 15.5981 7.96719 16.2161 6.49617 16.2161ZM3.44414 13.8041C4.26471 14.8841 5.27533 15.4241 6.49617 15.4241C7.71702 15.4241 8.72774 14.8841 9.51828 13.8041C10.3188 12.7121 10.7292 11.3441 10.7292 9.70007C10.7292 8.04407 10.3188 6.68207 9.51828 5.61407C8.72774 4.52207 7.71702 3.97607 6.49617 3.97607C5.26532 3.97607 4.2547 4.52207 3.44414 5.61407C2.65359 6.69407 2.26327 8.05607 2.26327 9.70007C2.26327 11.3321 2.65359 12.7001 3.44414 13.8041ZM22.2571 16.0001H21.4265V12.3461H14.4517V11.6621L21.4566 3.40007H22.2571V11.5721H24.3986V12.3461H22.2571V16.0001ZM21.4265 4.58807L15.4825 11.5721H21.4265V4.58807Z" fill="#34323D"/>
</svg>
