<svg xmlns="http://www.w3.org/2000/svg" width="42" height="42" viewBox="0 0 42 42" fill="none">
          <path
            d="M28.9905 38.4982H29.0395C29.9635 38.4982 30.8367 38.1342 31.4982 37.4727L36.2443 32.7267C36.4069 32.5644 36.5359 32.3715 36.624 32.1592C36.712 31.9469 36.7574 31.7193 36.7574 31.4895C36.7574 31.2597 36.712 31.0321 36.624 30.8198C36.5359 30.6075 36.4069 30.4146 36.2443 30.2522L29.2442 23.2522C29.0819 23.0896 28.889 22.9606 28.6767 22.8725C28.4644 22.7845 28.2368 22.7391 28.007 22.7391C27.7772 22.7391 27.5496 22.7845 27.3373 22.8725C27.125 22.9606 26.9321 23.0896 26.7697 23.2522L23.9802 26.0417C22.687 25.6567 20.2737 24.7817 18.7442 23.2522C17.2147 21.7227 16.3397 19.3095 15.9547 18.0162L18.7442 15.2267C18.9069 15.0644 19.0359 14.8715 19.124 14.6592C19.212 14.4469 19.2573 14.2193 19.2573 13.9895C19.2573 13.7597 19.212 13.5321 19.124 13.3198C19.0359 13.1075 18.9069 12.9146 18.7442 12.7522L11.7442 5.75225C11.4097 5.43647 10.967 5.26056 10.507 5.26056C10.0469 5.26056 9.6043 5.43647 9.26975 5.75225L4.5255 10.4982C3.8605 11.1632 3.486 12.0767 3.5 13.0095C3.54025 15.5015 4.2 24.157 11.0215 30.9785C17.843 37.8 26.4985 38.458 28.9905 38.4982ZM10.5087 9.464L15.0342 13.9895L12.7715 16.2522C12.5656 16.4576 12.4143 16.7112 12.3315 16.99C12.2487 17.2687 12.2369 17.5638 12.2972 17.8482C12.3392 18.0495 13.3665 22.8217 16.2715 25.7267C19.1765 28.6317 23.9487 29.659 24.15 29.701C24.4345 29.7617 24.7296 29.7501 25.0084 29.6672C25.2872 29.5844 25.5408 29.4329 25.746 29.2267L28.0087 26.964L32.5342 31.4895L29.0237 34.9982C26.8397 34.9615 19.3672 34.3752 13.496 28.5022C7.6055 22.6117 7.035 15.113 7 12.9727L10.5087 9.464ZM34.9982 19.2482H38.4982C38.4982 10.2707 31.7205 3.5 22.7307 3.5V7C29.8392 7 34.9982 12.1502 34.9982 19.2482Z"
            fill="#BBBBBB" />
          <path
            d="M22.7482 14C26.4285 14 27.9982 15.5698 27.9982 19.25H31.4982C31.4982 13.6063 28.392 10.5 22.7482 10.5V14Z"
            fill="#BBBBBB" />
        </svg>