<svg xmlns="http://www.w3.org/2000/svg" width="41" height="43" viewBox="0 0 41 43" fill="none">
          <path
            d="M35.2344 4.59619H5.76562C5.05693 4.59619 4.48438 5.18271 4.48438 5.90869V36.0962C4.48438 36.8222 5.05693 37.4087 5.76562 37.4087H35.2344C35.9431 37.4087 36.5156 36.8222 36.5156 36.0962V5.90869C36.5156 5.18271 35.9431 4.59619 35.2344 4.59619ZM33.9531 34.7837H26.5819V24.7021H30.746L31.3706 19.7515H26.5819V16.5892C26.5819 15.1536 26.9703 14.1774 28.9763 14.1774H31.5348V9.74775C31.0903 9.68623 29.5729 9.55088 27.8031 9.55088C24.1115 9.55088 21.5851 11.8601 21.5851 16.097V19.7474H17.413V24.6979H21.5891V34.7837H7.04688V7.22119H33.9531V34.7837Z"
            fill="#BBBBBB" />
        </svg>