<svg xmlns="http://www.w3.org/2000/svg" width="43" height="43" viewBox="0 0 43 43" fill="none">
          <path
            d="M29.9614 24.6077C29.5037 24.378 27.2235 23.287 26.7994 23.1394C26.3753 22.9835 26.0645 22.9097 25.758 23.369C25.4473 23.8243 24.5654 24.8374 24.2883 25.145C24.0195 25.4485 23.7466 25.4855 23.2889 25.2599C20.5678 23.931 18.7831 22.8892 16.99 19.8827C16.5155 19.0829 17.4645 19.1403 18.3506 17.4136C18.5018 17.1101 18.4262 16.8517 18.3086 16.622C18.191 16.3923 17.2672 14.1692 16.8809 13.2628C16.5071 12.381 16.1208 12.504 15.8394 12.4876C15.5707 12.4712 15.2642 12.4712 14.9534 12.4712C14.6427 12.4712 14.143 12.586 13.7188 13.0331C13.2947 13.4884 12.0979 14.5835 12.0979 16.8065C12.0979 19.0296 13.7566 21.1829 13.9834 21.4864C14.2186 21.7899 17.2462 26.3509 21.8947 28.3155C24.8342 29.5542 25.9848 29.6608 27.4545 29.4476C28.3489 29.3163 30.1924 28.3565 30.5745 27.2942C30.9566 26.236 30.9566 25.3296 30.8433 25.1409C30.7299 24.9399 30.4191 24.8251 29.9614 24.6077Z"
            fill="#BBBBBB" />
          <path
            d="M38.8512 13.8821C37.9021 11.6796 36.5416 9.70264 34.8073 8.00459C33.073 6.31064 31.049 4.97764 28.7898 4.05479C26.4803 3.10732 24.0279 2.62744 21.5 2.62744H21.416C18.8713 2.63975 16.4063 3.13193 14.0884 4.0999C11.8502 5.03506 9.84297 6.36396 8.12549 8.05791C6.40801 9.75186 5.06006 11.7206 4.12783 13.9149C3.16201 16.1872 2.6749 18.603 2.6875 21.0886C2.7001 23.9351 3.39717 26.761 4.70313 29.2876V35.522C4.70313 36.5638 5.56817 37.4087 6.63477 37.4087H13.0218C15.6085 38.6843 18.5018 39.3651 21.416 39.3774H21.5042C24.0195 39.3774 26.4593 38.9017 28.7562 37.9706C31.0028 37.056 33.0227 35.7435 34.7527 34.0659C36.487 32.3884 37.8518 30.4278 38.805 28.2417C39.796 25.9776 40.2999 23.57 40.3125 21.0845C40.3251 18.5866 39.8296 16.1626 38.8512 13.8821ZM32.5062 31.847C29.5625 34.6935 25.6572 36.2603 21.5 36.2603H21.4286C18.8965 36.2479 16.3812 35.6327 14.1598 34.4761L13.807 34.2915H7.89453V28.5165L7.70557 28.172C6.52139 26.0022 5.89151 23.5454 5.87891 21.0722C5.86211 16.9829 7.46201 13.1438 10.3973 10.2522C13.3283 7.36064 17.2462 5.76104 21.4328 5.74463H21.5042C23.6038 5.74463 25.6404 6.14248 27.5595 6.92998C29.4323 7.69697 31.112 8.80029 32.5565 10.2112C33.9969 11.6181 35.1307 13.2628 35.9159 15.0921C36.7306 16.987 37.1379 18.9968 37.1295 21.0722C37.1043 25.1573 35.4624 28.9841 32.5062 31.847Z"
            fill="#BBBBBB" />
        </svg>