<svg xmlns="http://www.w3.org/2000/svg" width="45" height="46" viewBox="0 0 45 46" fill="none">
          <path
            d="M22.5 13.9891C17.5122 13.9891 13.4868 18.0145 13.4868 23.0023C13.4868 27.9901 17.5122 32.0155 22.5 32.0155C27.4878 32.0155 31.5132 27.9901 31.5132 23.0023C31.5132 18.0145 27.4878 13.9891 22.5 13.9891ZM22.5 28.8602C19.2744 28.8602 16.6421 26.2279 16.6421 23.0023C16.6421 19.7767 19.2744 17.1444 22.5 17.1444C25.7256 17.1444 28.3579 19.7767 28.3579 23.0023C28.3579 26.2279 25.7256 28.8602 22.5 28.8602ZM31.8823 11.5194C30.7178 11.5194 29.7773 12.4598 29.7773 13.6244C29.7773 14.7889 30.7178 15.7293 31.8823 15.7293C33.0469 15.7293 33.9873 14.7933 33.9873 13.6244C33.9877 13.3478 33.9334 13.0739 33.8278 12.8184C33.7221 12.5629 33.5671 12.3307 33.3715 12.1351C33.176 11.9396 32.9438 11.7846 32.6883 11.6789C32.4327 11.5732 32.1589 11.519 31.8823 11.5194ZM40.0693 23.0023C40.0693 20.5765 40.0913 18.1727 39.9551 15.7513C39.8188 12.9388 39.1772 10.4427 37.1206 8.38607C35.0596 6.32504 32.5679 5.68783 29.7554 5.5516C27.3296 5.41537 24.9258 5.43734 22.5044 5.43734C20.0786 5.43734 17.6748 5.41537 15.2534 5.5516C12.4409 5.68783 9.94482 6.32943 7.88818 8.38607C5.82715 10.4471 5.18994 12.9388 5.05371 15.7513C4.91748 18.1771 4.93945 20.5809 4.93945 23.0023C4.93945 25.4237 4.91748 27.8319 5.05371 30.2533C5.18994 33.0658 5.83154 35.5618 7.88818 37.6185C9.94922 39.6795 12.4409 40.3167 15.2534 40.453C17.6792 40.5892 20.083 40.5672 22.5044 40.5672C24.9302 40.5672 27.334 40.5892 29.7554 40.453C32.5679 40.3167 35.064 39.6751 37.1206 37.6185C39.1816 35.5575 39.8188 33.0658 39.9551 30.2533C40.0957 27.8319 40.0693 25.4281 40.0693 23.0023ZM36.2021 33.3646C35.8813 34.1644 35.4946 34.762 34.875 35.3773C34.2554 35.9969 33.6621 36.3836 32.8623 36.7044C30.5508 37.6229 25.062 37.4163 22.5 37.4163C19.938 37.4163 14.4448 37.6229 12.1333 36.7088C11.3335 36.388 10.7358 36.0013 10.1206 35.3817C9.50098 34.762 9.11426 34.1688 8.79346 33.369C7.8794 31.0531 8.08594 25.5643 8.08594 23.0023C8.08594 20.4403 7.8794 14.9471 8.79346 12.6356C9.11426 11.8358 9.50098 11.2381 10.1206 10.6229C10.7402 10.0077 11.3335 9.61654 12.1333 9.29574C14.4448 8.38168 19.938 8.58822 22.5 8.58822C25.062 8.58822 30.5552 8.38168 32.8667 9.29574C33.6665 9.61654 34.2642 10.0033 34.8794 10.6229C35.499 11.2425 35.8857 11.8358 36.2065 12.6356C37.1206 14.9471 36.9141 20.4403 36.9141 23.0023C36.9141 25.5643 37.1206 31.0531 36.2021 33.3646Z"
            fill="#BBBBBB" />
        </svg>
