<svg width="70" height="70" viewBox="0 0 70 70" fill="none" xmlns="http://www.w3.org/2000/svg">
<g filter="url(#filter0_d_10_104)">
<path d="M29.7168 44.3162C30.2085 43.8236 30.2085 43.0262 29.7168 42.5336C29.2246 42.0424 28.4273 42.0424 27.9346 42.5336C27.4434 43.0262 27.4434 43.8236 27.9346 44.3162C28.4273 44.8074 29.2246 44.8074 29.7168 44.3162Z" fill="#44BEC8"/>
<path d="M23.7516 14.4174C23.7516 22.0575 29.9673 28.2737 37.6074 28.2737C45.2475 28.2737 51.4632 22.0575 51.4632 14.4174C51.4632 6.77736 45.2475 0.561646 37.6074 0.561646C29.9673 0.561646 23.7516 6.77736 23.7516 14.4174ZM48.9442 14.4174C48.9442 20.6686 43.8585 25.7543 37.6074 25.7543C31.3562 25.7543 26.2706 20.6686 26.2706 14.4174C26.2706 8.16678 31.3562 3.0811 37.6074 3.0811C43.8585 3.0811 48.9442 8.16678 48.9442 14.4174Z" fill="#44BEC8"/>
<path d="M14.5794 64.6998C15.0676 65.192 15.8625 65.1974 16.3571 64.7102L22.464 58.6938C23.5016 57.6563 23.817 56.1202 23.3608 54.7849L24.6744 53.518C25.3817 52.8349 26.3129 52.4584 27.2972 52.4584H44.0426C47.0134 52.4584 49.8213 51.3175 51.9499 49.2459C52.0375 49.1608 51.285 50.0472 63.3739 35.5988C65.1669 33.4775 64.8986 30.2921 62.7754 28.4972C60.6654 26.7189 57.5047 26.9744 55.7067 29.0592L48.2739 36.6988C47.3353 35.5437 45.904 34.8236 44.3576 34.8236H30.3113C28.3126 33.9874 26.1918 33.5641 24.0036 33.5641C17.938 33.5641 12.6416 36.3656 9.79932 41.6181C8.60185 41.3913 7.33892 41.7535 6.43036 42.6621L0.438091 48.672C-0.0511336 49.1627 -0.0521179 49.9566 0.436123 50.4488L14.5794 64.6998ZM24.0031 36.0831C25.9324 36.0831 27.7978 36.4714 29.5485 37.2373C29.7079 37.3072 29.8797 37.3431 30.0534 37.3431H44.3576C45.7234 37.3431 46.8771 38.4569 46.8771 39.8621C46.8771 41.2515 45.747 42.3815 44.3576 42.3815H34.0804C33.385 42.3815 32.8209 42.9455 32.8209 43.641C32.8209 44.3369 33.385 44.9005 34.0804 44.9005H44.3576C47.1359 44.9005 49.396 42.6404 49.396 39.8621C49.396 39.6406 49.3803 39.4211 49.3517 39.2035C56.542 31.8125 57.5558 30.774 57.5992 30.7223C58.4969 29.6627 60.0906 29.5283 61.1507 30.4221C62.2118 31.3193 62.3462 32.912 61.446 33.9776L50.1481 47.4839C48.4983 49.0678 46.3322 49.9394 44.0426 49.9394H27.2972C25.6563 49.9394 24.103 50.5669 22.9247 51.7053L21.8542 52.7384L11.9861 42.8707C14.2924 38.544 18.6201 36.0831 24.0031 36.0831ZM8.21303 44.4423C8.62843 44.0269 9.26629 43.9521 9.77274 44.2651C9.99078 44.398 9.36472 43.828 20.6828 55.1304C21.1863 55.6339 21.1593 56.4361 20.6897 56.9057L15.4835 62.0347L3.10668 49.5634L8.21303 44.4423Z" fill="#44BEC8"/>
<path d="M36.0959 6.86007V8.33611C34.6297 8.85585 33.5764 10.2561 33.5764 11.8985C33.5764 13.9819 35.2715 15.6774 37.3554 15.6774C38.0498 15.6774 38.6149 16.2425 38.6149 16.9369C38.6149 17.6314 38.0498 18.1964 37.3554 18.1964C36.8174 18.1964 36.2362 17.8583 35.7199 17.2436C35.272 16.711 34.4776 16.6426 33.9451 17.09C33.4125 17.5379 33.3436 18.3322 33.7915 18.8648C34.4648 19.6656 35.2567 20.2237 36.0959 20.5052V21.9754C36.0959 22.6713 36.6599 23.2348 37.3554 23.2348C38.0508 23.2348 38.6149 22.6713 38.6149 21.9754V20.4993C40.0811 19.9791 41.1343 18.5788 41.1343 16.9369C41.1343 14.853 39.4393 13.158 37.3554 13.158C36.6609 13.158 36.0959 12.593 36.0959 11.8985C36.0959 11.204 36.6609 10.6385 37.3554 10.6385C37.8018 10.6385 38.2728 10.8664 38.7177 11.2971C39.2178 11.7809 40.0151 11.7676 40.4989 11.268C40.9827 10.768 40.9694 9.97064 40.4699 9.48683C39.8305 8.86816 39.1907 8.51822 38.6149 8.32726V6.86007C38.6149 6.16413 38.0508 5.6001 37.3554 5.6001C36.6599 5.6001 36.0959 6.16413 36.0959 6.86007Z" fill="#44BEC8"/>
</g>
<defs>
<filter id="filter0_d_10_104" x="0.0705566" y="0.561646" width="69.4906" height="68.5106" filterUnits="userSpaceOnUse" color-interpolation-filters="sRGB">
<feFlood flood-opacity="0" result="BackgroundImageFix"/>
<feColorMatrix in="SourceAlpha" type="matrix" values="0 0 0 0 0 0 0 0 0 0 0 0 0 0 0 0 0 0 127 0" result="hardAlpha"/>
<feOffset dx="4" dy="3"/>
<feGaussianBlur stdDeviation="0.5"/>
<feColorMatrix type="matrix" values="0 0 0 0 0.286275 0 0 0 0 0.188235 0 0 0 0 0.164706 0 0 0 0.55 0"/>
<feBlend mode="normal" in2="BackgroundImageFix" result="effect1_dropShadow_10_104"/>
<feBlend mode="normal" in="SourceGraphic" in2="effect1_dropShadow_10_104" result="shape"/>
</filter>
</defs>
</svg>
