<svg width="60" height="65" viewBox="0 0 60 65" fill="none" xmlns="http://www.w3.org/2000/svg">
<g filter="url(#filter0_d_10_102)">
<path d="M43.2053 30.0278H47.4139C48.3654 30.0278 49.1395 29.2537 49.1395 28.3022V24.0936C49.1395 23.1421 48.3654 22.368 47.4139 22.368H43.2053C42.2539 22.368 41.4798 23.1421 41.4798 24.0936V28.3022C41.4798 29.2537 42.2539 30.0278 43.2053 30.0278ZM43.2474 24.1357H47.3719V28.2601H43.2474V24.1357ZM43.2053 41.2228H47.4139C48.3654 41.2228 49.1395 40.4487 49.1395 39.4972V35.2886C49.1395 34.3371 48.3654 33.563 47.4139 33.563H43.2053C42.2539 33.563 41.4798 34.3371 41.4798 35.2886V39.4972C41.4798 40.4487 42.2539 41.2228 43.2053 41.2228ZM43.2474 35.3307H47.3719V39.4551H43.2474V35.3307ZM31.1953 30.0278H35.4039C36.3554 30.0278 37.1295 29.2537 37.1295 28.3022V24.0936C37.1295 23.1421 36.3554 22.368 35.4039 22.368H31.1953C30.2439 22.368 29.4698 23.1421 29.4698 24.0936V28.3022C29.4698 29.2537 30.2439 30.0278 31.1953 30.0278ZM31.2374 24.1357H35.3619V28.2601H31.2374V24.1357ZM11.3839 44.2332H7.17532C6.22386 44.2332 5.44975 45.0073 5.44975 45.9587V50.1673C5.44975 51.1188 6.22386 51.8929 7.17532 51.8929H11.3839C12.3354 51.8929 13.1095 51.1188 13.1095 50.1673V45.9587C13.1095 45.0073 12.3354 44.2332 11.3839 44.2332ZM11.3419 50.1253H7.21739V46.0008H11.3419V50.1253ZM11.3839 22.368H7.17532C6.22386 22.368 5.44975 23.1421 5.44975 24.0936V28.3022C5.44975 29.2537 6.22386 30.0278 7.17532 30.0278H11.3839C12.3354 30.0278 13.1095 29.2537 13.1095 28.3022V24.0936C13.1095 23.142 12.3354 22.368 11.3839 22.368ZM11.3419 28.2601H7.21739V24.1357H11.3419V28.2601ZM31.1953 40.9603H35.4039C36.3554 40.9603 37.1295 40.1862 37.1295 39.2348V35.0262C37.1295 34.0747 36.3554 33.3006 35.4039 33.3006H31.1953C30.2439 33.3006 29.4698 34.0747 29.4698 35.0262V39.2348C29.4698 40.1862 30.2439 40.9603 31.1953 40.9603ZM31.2374 35.0682H35.3619V39.1927H31.2374V35.0682ZM50.0173 4.4348H46.2386V3.0835C46.2386 1.60152 45.0329 0.395874 43.551 0.395874H43.1451C41.6632 0.395874 40.4576 1.60152 40.4576 3.0835V4.4348H14.1317V3.0835C14.1317 1.60152 12.926 0.395874 11.444 0.395874H11.0382C9.5562 0.395874 8.35056 1.60152 8.35056 3.0835V4.4348H4.57195C2.13202 4.4348 0.146973 6.41985 0.146973 8.85977V56.312C0.146973 58.7487 2.12931 60.7311 4.56605 60.7311H50.0234C52.4602 60.7311 54.4425 58.7487 54.4425 56.312V8.85977C54.4424 6.41985 52.4574 4.4348 50.0173 4.4348ZM42.2252 3.0835C42.2252 2.57619 42.6379 2.16351 43.1452 2.16351H43.5511C44.0584 2.16351 44.4711 2.57619 44.4711 3.0835V4.4348H42.2252V3.0835ZM10.1183 3.0835C10.1183 2.57619 10.531 2.16351 11.0383 2.16351H11.4441C11.9515 2.16351 12.3641 2.57619 12.3641 3.0835V4.4348H10.1184V3.0835H10.1183ZM52.6748 56.312C52.6748 57.7741 51.4854 58.9634 50.0233 58.9634H4.56594C3.10387 58.9634 1.91449 57.7741 1.91449 56.312V56.3065C2.65501 56.8644 3.57547 57.1958 4.57195 57.1958H40.4058C41.5877 57.1958 42.699 56.7355 43.5347 55.8997L52.6748 46.7596V56.312ZM42.6329 54.3017C42.7021 54.0157 42.7398 53.7175 42.7398 53.4105V47.5108C42.7398 46.3984 43.645 45.4933 44.7575 45.4933H50.6571C50.9641 45.4933 51.2623 45.4555 51.5483 45.3863L42.6329 54.3017ZM52.6748 17.0651H15.0155C14.5274 17.0651 14.1317 17.4608 14.1317 17.9489C14.1317 18.437 14.5274 18.8328 15.0155 18.8328H52.6748V41.708C52.6748 42.8206 51.7696 43.7257 50.6571 43.7257H44.7575C42.6703 43.7257 40.9722 45.4238 40.9722 47.5109V53.4106C40.9722 54.5231 40.0671 55.4283 38.9546 55.4283H4.57195C3.1067 55.4283 1.91461 54.2362 1.91461 52.7708V18.8328H11.4802C11.9683 18.8328 12.364 18.437 12.364 17.9489C12.364 17.4608 11.9683 17.0651 11.4802 17.0651H1.91449V8.85977C1.91449 7.39452 3.10658 6.20243 4.57183 6.20243H8.35056V8.80109C8.35056 10.2831 9.5562 11.4887 11.0382 11.4887C11.5263 11.4887 11.922 11.093 11.922 10.6049C11.922 10.1168 11.5263 9.72108 11.0382 9.72108C10.5309 9.72108 10.1182 9.3084 10.1182 8.80109V6.20243H40.4576V8.80109C40.4576 10.2831 41.6632 11.4887 43.1452 11.4887C43.6333 11.4887 44.029 11.093 44.029 10.6049C44.029 10.1168 43.6333 9.72108 43.1452 9.72108C42.6379 9.72108 42.2252 9.3084 42.2252 8.80109V6.20243H50.0174C51.4827 6.20243 52.6748 7.39452 52.6748 8.85977V17.0651ZM11.3839 33.3006H7.17532C6.22386 33.3006 5.44975 34.0747 5.44975 35.0262V39.2348C5.44975 40.1862 6.22386 40.9603 7.17532 40.9603H11.3839C12.3354 40.9603 13.1095 40.1862 13.1095 39.2348V35.0262C13.1095 34.0746 12.3354 33.3006 11.3839 33.3006ZM11.3419 39.1927H7.21739V35.0682H11.3419V39.1927ZM19.1853 30.0278H23.3939C24.3454 30.0278 25.1195 29.2537 25.1195 28.3022V24.0936C25.1195 23.1421 24.3454 22.368 23.3939 22.368H19.1853C18.2339 22.368 17.4598 23.1421 17.4598 24.0936V28.3022C17.4598 29.2537 18.2339 30.0278 19.1853 30.0278ZM19.2274 24.1357H23.3519V28.2601H19.2274V24.1357ZM31.2363 50.1253C31.2144 49.6566 30.8275 49.2835 30.3535 49.2835C29.8654 49.2835 29.4696 49.6792 29.4696 50.1673C29.4696 51.1188 30.2437 51.8929 31.1952 51.8929H35.4038C36.3553 51.8929 37.1294 51.1188 37.1294 50.1673V45.9587C37.1294 45.0073 36.3553 44.2332 35.4038 44.2332H31.1952C30.2437 44.2332 29.4696 45.0073 29.4696 45.9587V47.1725C29.4696 47.6606 29.8654 48.0563 30.3535 48.0563C30.8416 48.0563 31.2373 47.6606 31.2373 47.1725V46.0008H35.3618V50.1253H31.2363ZM19.1853 40.9603H23.3939C24.3454 40.9603 25.1195 40.1862 25.1195 39.2348V35.0262C25.1195 34.0747 24.3454 33.3006 23.3939 33.3006H19.1853C18.2339 33.3006 17.4598 34.0747 17.4598 35.0262V39.2348C17.4598 40.1862 18.2339 40.9603 19.1853 40.9603ZM19.2274 35.0682H23.3519V39.1927H19.2274V35.0682ZM19.1853 51.8929H23.3939C24.3454 51.8929 25.1195 51.1188 25.1195 50.1673V45.9587C25.1195 45.0073 24.3454 44.2332 23.3939 44.2332H19.1853C18.2339 44.2332 17.4598 45.0073 17.4598 45.9587V50.1673C17.4598 51.1188 18.2339 51.8929 19.1853 51.8929ZM19.2274 46.0008H23.3519V50.1253H19.2274V46.0008Z" fill="#44BEC8"/>
</g>
<defs>
<filter id="filter0_d_10_102" x="0.146973" y="0.395874" width="59.2956" height="64.3352" filterUnits="userSpaceOnUse" color-interpolation-filters="sRGB">
<feFlood flood-opacity="0" result="BackgroundImageFix"/>
<feColorMatrix in="SourceAlpha" type="matrix" values="0 0 0 0 0 0 0 0 0 0 0 0 0 0 0 0 0 0 127 0" result="hardAlpha"/>
<feOffset dx="4" dy="3"/>
<feGaussianBlur stdDeviation="0.5"/>
<feColorMatrix type="matrix" values="0 0 0 0 0.286275 0 0 0 0 0.188235 0 0 0 0 0.164706 0 0 0 0.55 0"/>
<feBlend mode="normal" in2="BackgroundImageFix" result="effect1_dropShadow_10_102"/>
<feBlend mode="normal" in="SourceGraphic" in2="effect1_dropShadow_10_102" result="shape"/>
</filter>
</defs>
</svg>
