<svg width="62" height="50" viewBox="0 0 62 50" fill="none" xmlns="http://www.w3.org/2000/svg">
<g filter="url(#filter0_d_10_65)">
<path d="M29.5505 37.5862V10.8196C29.5505 10.3244 29.1493 9.92322 28.6541 9.92322C28.1589 9.92322 27.7577 10.3244 27.7577 10.8196V37.5862C27.7577 38.0814 28.1589 38.4826 28.6541 38.4826C29.1493 38.4826 29.5505 38.0814 29.5505 37.5862Z" fill="#44BEC8"/>
<path d="M55.5461 4.08616C53.651 4.08616 51.2895 3.2684 48.7892 2.40272C45.6229 1.30625 42.0339 0.0635986 38.3118 0.0635986C34.0049 0.0635986 31.3774 1.95094 29.9316 3.53422C29.3909 4.12656 28.9719 4.72009 28.6542 5.24658C28.3365 4.72009 27.9175 4.12656 27.3768 3.53422C25.931 1.95094 23.3035 0.0635986 18.9966 0.0635986C15.2744 0.0635986 11.6855 1.30625 8.51918 2.40272C6.0187 3.2684 3.65723 4.08616 1.76212 4.08616C1.26695 4.08616 0.865723 4.48739 0.865723 4.98256V41.0886C0.865723 41.5837 1.26695 41.985 1.76212 41.985C3.9589 41.985 6.45889 41.1193 9.10554 40.2028C12.1384 39.1527 15.5759 37.9624 18.9964 37.9624C21.9294 37.9624 24.3034 38.9336 26.0526 40.849C26.3863 41.2145 26.9534 41.2402 27.3191 40.9064C27.6847 40.5726 27.7102 40.0056 27.3764 39.64C25.9306 38.0568 23.3032 36.1695 18.9964 36.1695C15.2742 36.1695 11.6853 37.4121 8.51894 38.5086C6.39925 39.2428 4.37913 39.9421 2.65852 40.1381V5.8345C4.62952 5.64673 6.81243 4.89077 9.10554 4.0968C12.1384 3.0467 15.5759 1.8564 18.9964 1.8564C25.9143 1.8564 27.7243 7.34977 27.7971 7.58068C27.9128 7.95693 28.2604 8.2139 28.6541 8.2139C29.0478 8.2139 29.3954 7.95705 29.5111 7.58068C29.5285 7.52343 31.3496 1.8564 38.3118 1.8564C41.7323 1.8564 45.1698 3.0467 48.2026 4.0968C50.4959 4.89089 52.6787 5.64673 54.6497 5.8345V40.1381C52.9291 39.9421 50.9089 39.2428 48.7892 38.5087C45.6229 37.4123 42.0339 36.1696 38.3118 36.1696C34.0048 36.1696 31.3772 38.0569 29.9316 39.6402C29.5978 40.006 29.6235 40.5728 29.989 40.9067C30.3547 41.2405 30.9217 41.2148 31.2554 40.8493C33.0046 38.9337 35.3786 37.9625 38.3118 37.9625C41.7323 37.9625 45.1698 39.1528 48.2026 40.2029C50.8494 41.1194 53.3494 41.9851 55.5461 41.9851C56.0412 41.9851 56.4425 41.5839 56.4425 41.0887V4.98256C56.4425 4.48751 56.0412 4.08616 55.5461 4.08616Z" fill="#44BEC8"/>
<path d="M55.5461 43.7777C53.651 43.7777 51.2895 42.9599 48.7892 42.0943C45.6229 40.9978 42.0339 39.7551 38.3118 39.7551C34.2669 39.7551 31.7034 41.4198 30.2088 42.9339L27.0993 42.9338C25.6047 41.4197 23.0411 39.7551 18.9964 39.7551C15.2742 39.7551 11.6853 40.9978 8.51894 42.0943C6.0187 42.9599 3.65723 43.7777 1.76212 43.7777C1.26695 43.7777 0.865723 44.1789 0.865723 44.6741C0.865723 45.1693 1.26695 45.5705 1.76212 45.5705C3.9589 45.5705 6.45889 44.7048 9.10554 43.7883C12.1384 42.7382 15.5759 41.5479 18.9964 41.5479C21.9294 41.5479 24.3034 42.5191 26.0526 44.4346C26.2225 44.6205 26.4627 44.7264 26.7145 44.7264L30.5934 44.7266C30.8453 44.7266 31.0855 44.6205 31.2553 44.4347C33.0045 42.5191 35.3785 41.5479 38.3117 41.5479C41.7322 41.5479 45.1697 42.7382 48.2025 43.7883C50.8493 44.7048 53.3493 45.5705 55.5459 45.5705C56.0411 45.5705 56.4423 45.1693 56.4423 44.6741C56.4423 44.1789 56.0412 43.7777 55.5461 43.7777Z" fill="#44BEC8"/>
</g>
<defs>
<filter id="filter0_d_10_65" x="0.865723" y="0.0635986" width="60.5767" height="49.5068" filterUnits="userSpaceOnUse" color-interpolation-filters="sRGB">
<feFlood flood-opacity="0" result="BackgroundImageFix"/>
<feColorMatrix in="SourceAlpha" type="matrix" values="0 0 0 0 0 0 0 0 0 0 0 0 0 0 0 0 0 0 127 0" result="hardAlpha"/>
<feOffset dx="4" dy="3"/>
<feGaussianBlur stdDeviation="0.5"/>
<feColorMatrix type="matrix" values="0 0 0 0 0.286275 0 0 0 0 0.188235 0 0 0 0 0.164706 0 0 0 0.55 0"/>
<feBlend mode="normal" in2="BackgroundImageFix" result="effect1_dropShadow_10_65"/>
<feBlend mode="normal" in="SourceGraphic" in2="effect1_dropShadow_10_65" result="shape"/>
</filter>
</defs>
</svg>
