<svg width="138" height="27" viewBox="0 0 138 27" fill="none" xmlns="http://www.w3.org/2000/svg">
<path d="M22.7285 0.795959V26.3897H18.2988V4.3819H10.459L10.002 14.2784C9.82617 17.3721 9.44531 19.7745 8.85938 21.4854C8.28516 23.1846 7.44727 24.4268 6.3457 25.212C5.24414 25.9971 3.76758 26.3897 1.91602 26.3897H0.791016V22.8389L1.49414 22.7862C2.51367 22.6924 3.29883 22.335 3.84961 21.7139C4.41211 21.0928 4.83398 20.1553 5.11523 18.9014C5.4082 17.6358 5.61328 15.7784 5.73047 13.3292L6.22266 0.795959H22.7285ZM26.877 16.7042C26.877 14.8409 27.2461 13.1651 27.9844 11.6768C28.7227 10.1768 29.7598 9.02838 31.0957 8.23151C32.4316 7.42291 33.9668 7.01862 35.7012 7.01862C38.2676 7.01862 40.3477 7.84479 41.9414 9.49713C43.5469 11.1495 44.4141 13.3409 44.543 16.0714L44.5605 17.0733C44.5605 18.9483 44.1973 20.6241 43.4707 22.1006C42.7559 23.5772 41.7246 24.7198 40.377 25.5284C39.041 26.337 37.4941 26.7413 35.7363 26.7413C33.0527 26.7413 30.9023 25.8506 29.2852 24.0694C27.6797 22.2764 26.877 19.8917 26.877 16.9151V16.7042ZM31.1484 17.0733C31.1484 19.0303 31.5527 20.5655 32.3613 21.6788C33.1699 22.7803 34.2949 23.3311 35.7363 23.3311C37.1777 23.3311 38.2969 22.7686 39.0938 21.6436C39.9023 20.5186 40.3066 18.8721 40.3066 16.7042C40.3066 14.7823 39.8906 13.2589 39.0586 12.1339C38.2383 11.0089 37.1191 10.4464 35.7012 10.4464C34.3066 10.4464 33.1992 11.003 32.3789 12.1163C31.5586 13.2178 31.1484 14.8702 31.1484 17.0733ZM60.8379 10.8155H52.5762V26.3897H48.3223V7.37018H60.8379V10.8155ZM62.1035 16.7042C62.1035 14.8409 62.4727 13.1651 63.2109 11.6768C63.9492 10.1768 64.9863 9.02838 66.3223 8.23151C67.6582 7.42291 69.1934 7.01862 70.9277 7.01862C73.4941 7.01862 75.5742 7.84479 77.168 9.49713C78.7734 11.1495 79.6406 13.3409 79.7695 16.0714L79.7871 17.0733C79.7871 18.9483 79.4238 20.6241 78.6973 22.1006C77.9824 23.5772 76.9512 24.7198 75.6035 25.5284C74.2676 26.337 72.7207 26.7413 70.9629 26.7413C68.2793 26.7413 66.1289 25.8506 64.5117 24.0694C62.9062 22.2764 62.1035 19.8917 62.1035 16.9151V16.7042ZM66.375 17.0733C66.375 19.0303 66.7793 20.5655 67.5879 21.6788C68.3965 22.7803 69.5215 23.3311 70.9629 23.3311C72.4043 23.3311 73.5234 22.7686 74.3203 21.6436C75.1289 20.5186 75.5332 18.8721 75.5332 16.7042C75.5332 14.7823 75.1172 13.2589 74.2852 12.1339C73.4648 11.0089 72.3457 10.4464 70.9277 10.4464C69.5332 10.4464 68.4258 11.003 67.6055 12.1163C66.7852 13.2178 66.375 14.8702 66.375 17.0733ZM97.8398 10.7628H91.6699V26.3897H87.3984V10.7628H81.2988V7.37018H97.8398V10.7628ZM112.57 7.37018H116.824V26.3897H112.57V13.6983L105.117 26.3897H100.863V7.37018H105.117V20.0616L112.57 7.37018ZM137.496 26.3897H133.225V10.8155H125.807V26.3897H121.535V7.37018H137.496V26.3897Z" fill="white"/>
</svg>
