<svg width="60" height="58" viewBox="0 0 60 58" fill="none" xmlns="http://www.w3.org/2000/svg">
<g filter="url(#filter0_d_10_100)">
<path d="M54.1997 22.5487L45.2008 10.8589C44.8677 10.4265 44.2602 10.3199 43.7996 10.6128L37.9896 14.3078H30.412C30.3139 14.3078 30.2163 14.3287 30.122 14.3562L24.2467 16.0475L18.1504 14.38L12.2267 10.6128C11.7738 10.3248 11.1774 10.4224 10.8406 10.84L0.887194 23.1689C0.529501 23.6119 0.58857 24.2588 1.0201 24.63L6.23699 29.1196L10.9173 35.4268C9.54851 36.8851 9.57518 39.1851 10.9994 40.6097C11.6307 41.2406 12.4334 41.597 13.2592 41.6799C13.2304 41.8669 13.2157 42.0569 13.2157 42.2496C13.2157 43.2448 13.6033 44.1804 14.3068 44.8839C15.0107 45.5878 15.9464 45.9755 16.9415 45.9755C16.955 45.9755 16.9682 45.9746 16.9813 45.9742C16.9809 45.9997 16.9796 46.0247 16.9796 46.0501C16.9796 47.0453 17.3673 47.9809 18.0708 48.6848C18.7747 49.3883 19.7103 49.7759 20.7055 49.7759C20.902 49.7759 21.0964 49.7599 21.2871 49.7304C21.3679 50.559 21.7252 51.3655 22.3586 51.9988C23.0846 52.7253 24.0387 53.0883 24.9929 53.0883C25.947 53.0883 26.9011 52.7253 27.6276 51.9988L28.1973 51.429L28.4365 51.6218C29.1568 52.3196 30.092 52.6683 31.0273 52.6683C31.9814 52.6683 32.9355 52.3052 33.6616 51.5788C34.4028 50.8375 34.7658 49.8592 34.7506 48.8858C35.7236 48.9006 36.7024 48.538 37.4436 47.7972C38.184 47.0563 38.547 46.0788 38.5326 45.1059C39.5462 45.1218 40.5078 44.7326 41.2252 44.0151C41.9664 43.2739 42.3294 42.2956 42.3143 41.3222C43.2881 41.337 44.266 40.9743 45.0072 40.2331C46.2723 38.9681 46.4351 37.0127 45.497 35.5692L48.9143 28.412L54.0521 23.9909C54.4766 23.6254 54.5414 22.9921 54.1997 22.5487ZM11.8895 12.8971L16.149 15.6057L6.88305 26.8943L3.16994 23.6985L11.8895 12.8971ZM12.4904 36.8313L13.776 35.5458C13.815 35.5068 13.856 35.4699 13.8978 35.4354C14.1493 35.2303 14.4537 35.1081 14.7761 35.079C14.7851 35.0782 14.7945 35.0782 14.8036 35.0778C14.8495 35.0741 14.8954 35.0716 14.9418 35.072C15.3823 35.0782 15.7917 35.2582 16.0953 35.5786C16.6909 36.2083 16.6589 37.237 16.0239 37.872L14.7773 39.1186C14.1468 39.7491 13.1209 39.7491 12.4904 39.1186C11.86 38.4877 11.86 37.4618 12.4904 36.8313ZM15.7979 43.3929C15.4923 43.0877 15.3241 42.6816 15.3241 42.2496C15.3241 41.8177 15.4923 41.4116 15.7979 41.106L18.2906 38.6132C18.7681 38.1358 19.5188 38.0049 20.1291 38.2958C20.7584 38.5956 21.1124 39.2786 21.0201 39.9657C20.9709 40.3324 20.8002 40.6778 20.5385 40.9399L18.0851 43.3929C17.7795 43.6985 17.3734 43.8666 16.9415 43.8666C16.5096 43.8666 16.1035 43.6985 15.7979 43.3929ZM19.5618 47.1933C19.2562 46.8882 19.0881 46.4821 19.0881 46.0501C19.0881 45.6182 19.2562 45.2121 19.5618 44.9065L22.0542 42.4137C22.5649 41.9034 23.3841 41.7935 24.0092 42.1574C24.5802 42.4896 24.8792 43.1418 24.7812 43.7916C24.7275 44.1489 24.5576 44.4848 24.3021 44.7404L21.8491 47.1933C21.5435 47.4989 21.1374 47.6671 20.7055 47.6671C20.2735 47.6671 19.8674 47.4989 19.5618 47.1933ZM23.8492 50.5077C23.2188 49.8773 23.2188 48.8514 23.8492 48.2209L25.1348 46.9353C25.1738 46.8964 25.2144 46.8599 25.2562 46.8254C25.2574 46.8246 25.2583 46.8238 25.2591 46.8229C25.4683 46.6531 25.714 46.5395 25.9761 46.4899C25.9823 46.489 25.9884 46.4882 25.9946 46.4874C26.0397 46.4792 26.0856 46.4726 26.1316 46.4685C26.15 46.4669 26.1685 46.4669 26.1873 46.4657C26.2251 46.4636 26.2624 46.4611 26.3006 46.4616C26.7407 46.4677 27.1505 46.6474 27.454 46.9681C27.4914 47.0075 27.5262 47.0485 27.5582 47.0908C28.0431 47.7245 27.9779 48.666 27.3761 49.2681L26.1361 50.5081C25.5056 51.1386 24.4797 51.1382 23.8492 50.5077ZM43.5161 38.742C42.8857 39.3729 41.8598 39.3725 41.2293 38.742C41.2063 38.7191 41.1821 38.6977 41.1575 38.6776L34.3786 31.8273C33.9688 31.4135 33.3014 31.4102 32.8875 31.82C32.4736 32.2293 32.4703 32.8967 32.8797 33.3106L39.7321 40.2343C39.7329 40.2352 39.7337 40.236 39.7345 40.2368C40.365 40.8673 40.365 41.8936 39.7345 42.5241C39.4289 42.8297 39.0228 42.9978 38.5909 42.9978C38.1586 42.9978 37.7525 42.8297 37.4473 42.5241L32.8633 37.8925C32.4539 37.4786 31.7865 37.4754 31.3727 37.8847C30.9588 38.2945 30.9555 38.9619 31.3649 39.3758L35.8787 43.9364C35.9016 43.9651 35.9263 43.9926 35.9525 44.0188C36.583 44.6493 36.583 45.6756 35.9525 46.3061C35.3216 46.9366 34.2953 46.9361 33.6648 46.3057L31.163 43.7776C30.7533 43.3637 30.0859 43.3601 29.672 43.7698C29.2581 44.1792 29.2548 44.8466 29.6642 45.2605L32.0962 47.7176C32.1192 47.7463 32.1438 47.7742 32.1705 47.8004C32.801 48.4309 32.801 49.4572 32.1705 50.0877C31.54 50.7186 30.5141 50.7182 29.8836 50.0877C29.811 50.0151 29.7257 49.9593 29.6445 49.897C29.5756 49.8445 29.5575 49.8079 29.592 49.7243C29.6269 49.6394 29.679 49.5626 29.7138 49.4773C29.7524 49.3822 29.7836 49.2841 29.8139 49.1857C29.9755 48.6647 30.0231 48.1044 29.9505 47.5638C29.811 46.5264 29.2404 45.5903 28.3758 44.998C27.9085 44.6784 27.3679 44.4688 26.8076 44.3901C27.0791 43.1923 26.753 41.8936 25.9047 40.9973C25.2066 40.2598 24.2635 39.8459 23.2491 39.8319C23.2122 39.8315 23.1753 39.8315 23.1379 39.8319C23.1605 38.8639 22.8086 37.902 22.1412 37.1968C21.4426 36.4593 20.4996 36.0454 19.4855 36.0315C19.184 36.0274 18.8797 36.0594 18.586 36.127C18.4605 35.2537 18.0203 34.4456 17.3537 33.8677C16.6913 33.2942 15.8582 32.9759 14.9709 32.9636C14.0369 32.9501 13.1193 33.2946 12.4256 33.921L8.35033 28.4297L18.0999 16.552L21.2071 17.4019L17.1491 24.5627C16.6585 25.4287 16.5346 26.4337 16.8 27.3927C17.0654 28.3522 17.6881 29.1504 18.554 29.641C18.6081 29.6718 18.6627 29.7009 18.7181 29.7288C18.7222 29.7308 18.7263 29.7329 18.7308 29.7349C18.8764 29.8075 19.0261 29.8699 19.1779 29.9224C19.8847 30.1673 20.648 30.1939 21.3843 29.9905C22.3434 29.7251 23.1416 29.102 23.6322 28.2365L26.2694 23.5828L30.978 23.9167L43.5166 36.4548C44.1466 37.0857 44.1466 38.1116 43.5161 38.742ZM43.953 33.9095L32.1906 22.1475C32.1684 22.1249 32.1451 22.1036 32.1209 22.0835C31.9514 21.9424 31.7414 21.8571 31.5199 21.8415L25.7546 21.4325C25.3559 21.405 24.9596 21.6171 24.7627 21.9646L21.7978 27.197C21.5849 27.5728 21.2383 27.8431 20.822 27.9584C20.406 28.0736 19.9696 28.0195 19.5934 27.8066C19.2177 27.5937 18.9474 27.2471 18.8321 26.8307C18.7168 26.4144 18.7706 25.9779 18.9839 25.6022L22.9419 18.6169L24.5457 18.1555C24.5564 18.1522 24.5667 18.1481 24.5773 18.1448L30.5633 16.4162H37.7959L46.8252 27.8944L43.953 33.9095ZM48.2063 26.2396L39.8564 15.6192L44.1179 12.909L51.9203 23.0438L48.2063 26.2396Z" fill="#44BEC8"/>
<path d="M33.226 12.3282C33.4959 12.3282 33.7658 12.2252 33.9717 12.0193L41.1731 4.81789C41.585 4.40605 41.585 3.73866 41.1731 3.32682C40.7613 2.91498 40.0939 2.91498 39.6821 3.32682L32.4806 10.5282C32.0688 10.9401 32.0688 11.6075 32.4806 12.0193C32.6866 12.2252 32.9565 12.3282 33.226 12.3282Z" fill="#44BEC8"/>
<path d="M21.1005 12.0193C21.3064 12.2252 21.5763 12.3282 21.8463 12.3282C22.1158 12.3282 22.3857 12.2252 22.5916 12.0193C23.0034 11.6075 23.0034 10.9401 22.5916 10.5282L15.3902 3.32682C14.9783 2.91498 14.3109 2.91498 13.8991 3.32682C13.4873 3.73866 13.4873 4.40605 13.8991 4.81789L21.1005 12.0193Z" fill="#44BEC8"/>
<path d="M27.5361 12.3282C28.1182 12.3282 28.5903 11.856 28.5903 11.274V5.31422C28.5903 4.73215 28.1182 4.26001 27.5361 4.26001C26.954 4.26001 26.4819 4.73215 26.4819 5.31422V11.274C26.4819 11.856 26.954 12.3282 27.5361 12.3282Z" fill="#44BEC8"/>
<path d="M26.5631 1.49325C26.7305 1.89893 27.1476 2.16515 27.5878 2.14218C28.0226 2.11962 28.4045 1.82592 28.539 1.41203C28.674 0.994857 28.5271 0.519439 28.1776 0.253631C27.8212 -0.0179201 27.324 -0.0330975 26.9512 0.213431C26.5352 0.488264 26.374 1.03547 26.5631 1.49325Z" fill="#44BEC8"/>
</g>
<defs>
<filter id="filter0_d_10_100" x="0.65332" y="0.0386963" width="58.7654" height="57.0496" filterUnits="userSpaceOnUse" color-interpolation-filters="sRGB">
<feFlood flood-opacity="0" result="BackgroundImageFix"/>
<feColorMatrix in="SourceAlpha" type="matrix" values="0 0 0 0 0 0 0 0 0 0 0 0 0 0 0 0 0 0 127 0" result="hardAlpha"/>
<feOffset dx="4" dy="3"/>
<feGaussianBlur stdDeviation="0.5"/>
<feColorMatrix type="matrix" values="0 0 0 0 0.286275 0 0 0 0 0.188235 0 0 0 0 0.164706 0 0 0 0.55 0"/>
<feBlend mode="normal" in2="BackgroundImageFix" result="effect1_dropShadow_10_100"/>
<feBlend mode="normal" in="SourceGraphic" in2="effect1_dropShadow_10_100" result="shape"/>
</filter>
</defs>
</svg>
