<svg width="77" height="73" viewBox="0 0 77 73" fill="none" xmlns="http://www.w3.org/2000/svg">
<g filter="url(#filter0_d_10_38)">
<path d="M71.4232 37.869C70.7806 31.4063 67.8934 25.3136 63.293 20.713C59.3616 16.7817 54.5496 14.2554 49.4863 13.132V9.58077C51.5543 9.06628 53.0915 7.19434 53.0915 4.96934C53.0915 2.34893 50.9597 0.217163 48.3393 0.217163H38.2759C35.6555 0.217163 33.5237 2.34893 33.5237 4.96934C33.5237 7.1942 35.0609 9.06614 37.1288 9.58077V13.142C32.081 14.2701 27.2849 16.7929 23.3646 20.7132C22.5067 21.5711 21.7156 22.4711 20.9915 23.4064C20.9564 23.4037 20.9213 23.4011 20.8855 23.4011H10.9254C10.1536 23.4011 9.5277 24.0268 9.5277 24.7988C9.5277 25.5707 10.1536 26.1965 10.9254 26.1965H19.0896C18.0648 27.9122 17.2385 29.7139 16.6096 31.5687H1.3977C0.62589 31.5687 0 32.1944 0 32.9664C0 33.7383 0.62589 34.3641 1.3977 34.3641H15.8197C15.4169 36.1323 15.1857 37.9319 15.126 39.7364H8.94528C8.17347 39.7364 7.54758 40.3622 7.54758 41.1341C7.54758 41.9061 8.17347 42.5318 8.94528 42.5318H15.1706C15.2886 44.341 15.5795 46.1407 16.0434 47.9042H6.9885C6.21669 47.9042 5.5908 48.5299 5.5908 49.3019C5.5908 50.0738 6.21669 50.6996 6.9885 50.6996H16.9354C18.3065 54.3267 20.4493 57.7264 23.3646 60.6417C27.9695 65.2465 34.0685 68.1345 40.5379 68.7736C41.4612 68.8648 42.3852 68.9099 43.308 68.9099C48.7621 68.9099 54.1469 67.3315 58.716 64.3561C59.3628 63.9348 59.5458 63.0689 59.1245 62.4221C58.7032 61.7752 57.8374 61.5923 57.1905 62.0135C47.189 68.5264 33.7944 67.1182 25.3413 58.6651C15.4229 48.7467 15.4229 32.6084 25.3413 22.6899C35.2595 12.7717 51.3978 12.7717 61.3162 22.6899C69.7582 31.132 71.1741 44.5152 64.6827 54.5118C64.2623 55.1592 64.4464 56.0249 65.0937 56.4452C65.7414 56.8657 66.6068 56.6816 67.0271 56.0342C70.4954 50.6929 72.0566 44.2418 71.4232 37.869ZM36.3191 4.96948C36.3191 3.89046 37.1968 3.0127 38.2759 3.0127H48.3393C49.4183 3.0127 50.2961 3.89046 50.2961 4.96948C50.2961 6.04851 49.4183 6.92626 48.3393 6.92626H48.0886H38.5265H38.2759C37.1968 6.92626 36.3191 6.04837 36.3191 4.96948ZM39.9242 12.6614V9.72166H46.6909V12.6564C44.4439 12.3892 42.1707 12.3908 39.9242 12.6614Z" fill="#44BEC8"/>
<path d="M62.3052 58.255C61.9363 58.255 61.577 58.4046 61.3172 58.6645C61.0559 58.9245 60.9076 59.2851 60.9076 59.6527C60.9076 60.0203 61.0559 60.3809 61.3172 60.6408C61.577 60.9022 61.9364 61.0504 62.3052 61.0504C62.6728 61.0504 63.032 60.9022 63.2934 60.6408C63.5534 60.3809 63.7029 60.0203 63.7029 59.6527C63.7029 59.2851 63.5535 58.9245 63.2934 58.6645C63.032 58.4046 62.6727 58.255 62.3052 58.255Z" fill="#44BEC8"/>
<path d="M43.3289 18.9949C31.3732 18.9949 21.6465 28.7215 21.6465 40.6772C21.6465 52.633 31.3732 62.3596 43.3289 62.3596C55.2845 62.3596 65.0112 52.633 65.0112 40.6772C65.0112 28.7215 55.2845 18.9949 43.3289 18.9949ZM43.3289 59.5642C32.9145 59.5642 24.4419 51.0915 24.4419 40.6772C24.4419 30.263 32.9145 21.7903 43.3289 21.7903C53.7433 21.7903 62.2158 30.263 62.2158 40.6772C62.2158 51.0915 53.7433 59.5642 43.3289 59.5642Z" fill="#44BEC8"/>
<path d="M52.1701 29.8593L45.2473 36.782C44.6684 36.4957 44.0172 36.334 43.3288 36.334C42.6403 36.334 41.9893 36.4957 41.4104 36.782L38.3121 33.6837C37.7661 33.1379 36.8814 33.1379 36.3353 33.6837C35.7895 34.2295 35.7895 35.1145 36.3353 35.6603L39.4336 38.7586C39.1472 39.3375 38.9856 39.9887 38.9856 40.6771C38.9856 43.0719 40.9339 45.0203 43.3288 45.0203C45.7238 45.0203 47.6721 43.0719 47.6721 40.6771C47.6721 39.9887 47.5103 39.3375 47.2241 38.7586L53.9437 32.039L54.1468 31.8359C54.6926 31.2901 54.6926 30.4051 54.1468 29.8593C53.601 29.3135 52.7162 29.3135 52.1701 29.8593ZM43.3288 42.225C42.4754 42.225 41.781 41.5307 41.781 40.6772C41.781 39.8238 42.4754 39.1294 43.3288 39.1294C44.1823 39.1294 44.8767 39.8238 44.8767 40.6772C44.8767 41.5307 44.1823 42.225 43.3288 42.225Z" fill="#44BEC8"/>
<path d="M58.2729 39.2966H56.9779C56.2061 39.2966 55.5803 39.9224 55.5803 40.6943C55.5803 41.4662 56.2061 42.092 56.9779 42.092H58.2729C59.0447 42.092 59.6706 41.4662 59.6706 40.6943C59.6706 39.9224 59.0447 39.2966 58.2729 39.2966Z" fill="#44BEC8"/>
<path d="M29.6795 39.2625H28.3847C27.6129 39.2625 26.9871 39.8882 26.9871 40.6601C26.9871 41.4321 27.6129 42.0578 28.3847 42.0578H29.6795C30.4513 42.0578 31.0772 41.4321 31.0772 40.6601C31.0772 39.8882 30.4513 39.2625 29.6795 39.2625Z" fill="#44BEC8"/>
<path d="M43.3459 28.4256C44.1177 28.4256 44.7435 27.7999 44.7435 27.0279V25.7331C44.7435 24.9612 44.1177 24.3354 43.3459 24.3354C42.5741 24.3354 41.9482 24.9612 41.9482 25.7331V27.0279C41.9482 27.7999 42.5741 28.4256 43.3459 28.4256Z" fill="#44BEC8"/>
<path d="M43.3117 52.9287C42.5399 52.9287 41.9141 53.5545 41.9141 54.3264V55.6212C41.9141 56.3931 42.5399 57.0189 43.3117 57.0189C44.0835 57.0189 44.7094 56.3931 44.7094 55.6212V54.3264C44.7094 53.5545 44.0835 52.9287 43.3117 52.9287Z" fill="#44BEC8"/>
<path d="M1.39768 47.9036C1.03009 47.9036 0.669488 48.0531 0.40952 48.3131C0.149552 48.5731 0 48.9337 0 49.3012C0 49.6702 0.149412 50.0294 0.40952 50.2894C0.669627 50.5494 1.03009 50.6989 1.39768 50.6989C1.76527 50.6989 2.12587 50.5494 2.3857 50.2894C2.64566 50.0294 2.79536 49.6688 2.79536 49.3012C2.79536 48.9337 2.6458 48.5731 2.3857 48.3131C2.12587 48.0531 1.76527 47.9036 1.39768 47.9036Z" fill="#44BEC8"/>
</g>
<defs>
<filter id="filter0_d_10_38" x="0" y="0.217163" width="76.5612" height="72.6927" filterUnits="userSpaceOnUse" color-interpolation-filters="sRGB">
<feFlood flood-opacity="0" result="BackgroundImageFix"/>
<feColorMatrix in="SourceAlpha" type="matrix" values="0 0 0 0 0 0 0 0 0 0 0 0 0 0 0 0 0 0 127 0" result="hardAlpha"/>
<feOffset dx="4" dy="3"/>
<feGaussianBlur stdDeviation="0.5"/>
<feColorMatrix type="matrix" values="0 0 0 0 0.2875 0 0 0 0 0.187306 0 0 0 0 0.162917 0 0 0 0.55 0"/>
<feBlend mode="normal" in2="BackgroundImageFix" result="effect1_dropShadow_10_38"/>
<feBlend mode="normal" in="SourceGraphic" in2="effect1_dropShadow_10_38" result="shape"/>
</filter>
</defs>
</svg>
