<svg width="50" height="61" viewBox="0 0 50 61" fill="none" xmlns="http://www.w3.org/2000/svg">
<g filter="url(#filter0_d_10_85)">
<path d="M10.2501 24.767L15.3643 18.6143C15.654 18.2657 15.6063 17.7485 15.2578 17.4589C14.9095 17.1693 14.392 17.217 14.1024 17.5654L9.71855 22.8394L8.76037 21.2829C8.52288 20.8971 8.01759 20.7767 7.63154 21.0144C7.24571 21.252 7.12549 21.7574 7.36298 22.1431L8.9203 24.6726C9.21479 25.1506 9.8915 25.1984 10.2501 24.767Z" fill="#44BEC8"/>
<path d="M7.36319 32.9729L8.92051 35.5024C9.21478 35.9805 9.89148 36.0283 10.2501 35.5967L15.3643 29.444C15.654 29.0955 15.6063 28.5783 15.2578 28.2886C14.9095 27.999 14.392 28.0466 14.1024 28.3952L9.71853 33.6691L8.76036 32.1127C8.52287 31.7268 8.01758 31.6064 7.63153 31.8441C7.24581 32.0818 7.12558 32.5872 7.36319 32.9729Z" fill="#44BEC8"/>
<path d="M7.36319 43.8759L8.92051 46.4054C9.21478 46.8834 9.89148 46.9312 10.2501 46.4997L15.3643 40.347C15.654 39.9984 15.6063 39.4812 15.2578 39.1916C14.9095 38.902 14.392 38.9496 14.1024 39.2981L9.71853 44.5721L8.76036 43.0156C8.52287 42.6298 8.01758 42.5095 7.63153 42.7471C7.24581 42.9848 7.12558 43.4902 7.36319 43.8759Z" fill="#44BEC8"/>
<path d="M43.6485 47.13C43.1954 47.13 42.8281 47.4972 42.8281 47.9504V53.9228C42.8281 54.6164 42.2637 55.1808 41.57 55.1808H3.61059C2.91693 55.1808 2.35257 54.6164 2.35257 53.9228V17.9662C2.35257 17.513 1.98523 17.1458 1.53212 17.1458C1.07901 17.1458 0.71167 17.513 0.71167 17.9662V53.9228C0.71167 55.5212 2.01214 56.8217 3.61059 56.8217H41.57C43.1685 56.8217 44.469 55.5212 44.469 53.9228V47.9504C44.469 47.4973 44.1016 47.13 43.6485 47.13Z" fill="#44BEC8"/>
<path d="M41.57 7.13432H37.5566V3.74412C37.5566 2.12761 36.2415 0.812378 34.6249 0.812378C33.0083 0.812378 31.6931 2.1275 31.6931 3.74412V7.13432H25.5221V3.74412C25.5221 2.1275 24.2068 0.812378 22.5903 0.812378C20.9738 0.812378 19.6586 2.1275 19.6586 3.74412V7.13432H13.4874V3.74412C13.4874 2.12761 12.1723 0.812378 10.5556 0.812378C8.93913 0.812378 7.6239 2.1275 7.6239 3.74412V7.13432H3.61059C2.01214 7.13432 0.71167 8.43479 0.71167 10.0332V14.1375C0.71167 14.5907 1.07901 14.9579 1.53212 14.9579C1.98523 14.9579 2.35257 14.5907 2.35257 14.1375V10.0332C2.35257 9.33958 2.91693 8.77522 3.61059 8.77522H7.6239V10.078C7.6239 11.6945 8.93902 13.0097 10.5556 13.0097C12.1723 13.0097 13.4874 11.6946 13.4874 10.078V8.77522H19.6586V10.078C19.6586 11.6945 20.9737 13.0097 22.5903 13.0097C24.2069 13.0097 25.5221 11.6946 25.5221 10.078V8.77522H31.6933V10.078C31.6933 11.6945 33.0084 13.0097 34.625 13.0097C36.2415 13.0097 37.5567 11.6946 37.5567 10.078V8.77522H41.57C42.2637 8.77522 42.8281 9.33958 42.8281 10.0332V44.1217C42.8281 44.5749 43.1954 44.9422 43.6485 44.9422C44.1016 44.9422 44.469 44.5749 44.469 44.1217V10.0332C44.469 8.43479 43.1685 7.13432 41.57 7.13432ZM11.8466 10.078C11.8466 10.7898 11.2676 11.3688 10.5557 11.3688C9.84404 11.3688 9.26491 10.7898 9.26491 10.078C9.26491 8.32911 9.26491 4.29152 9.26491 3.74412C9.26491 3.03229 9.84393 2.45328 10.5557 2.45328C11.2676 2.45328 11.8466 3.03229 11.8466 3.74412V10.078ZM23.8812 10.078C23.8812 10.7898 23.3021 11.3688 22.5903 11.3688C21.8785 11.3688 21.2995 10.7898 21.2995 10.078C21.2995 8.32911 21.2995 4.29152 21.2995 3.74412C21.2995 3.03229 21.8785 2.45328 22.5903 2.45328C23.3021 2.45328 23.8812 3.03229 23.8812 3.74412V10.078ZM35.9158 10.078C35.9158 10.7898 35.3368 11.3688 34.625 11.3688C33.9132 11.3688 33.3342 10.7898 33.3342 10.078C33.3342 8.32911 33.3342 4.29152 33.3342 3.74412C33.3342 3.03229 33.9132 2.45328 34.625 2.45328C35.3367 2.45328 35.9158 3.03229 35.9158 3.74412V10.078Z" fill="#44BEC8"/>
<path d="M18.8424 25.4458H36.1265C37.544 25.4458 38.6972 24.2926 38.6972 22.8751C38.6972 21.4575 37.544 20.3043 36.1265 20.3043H18.8424C17.4249 20.3043 16.2716 21.4575 16.2716 22.8751C16.2716 24.2926 17.4249 25.4458 18.8424 25.4458ZM18.8424 21.9452H36.1265C36.6392 21.9452 37.0564 22.3623 37.0564 22.8751C37.0564 23.3878 36.6392 23.8049 36.1265 23.8049H18.8424C18.3297 23.8049 17.9125 23.3878 17.9125 22.8751C17.9125 22.3623 18.3297 21.9452 18.8424 21.9452Z" fill="#44BEC8"/>
<path d="M18.8424 36.2991H36.1265C37.544 36.2991 38.6972 35.1459 38.6972 33.7283C38.6972 32.3108 37.544 31.1576 36.1265 31.1576H18.8424C17.4249 31.1576 16.2716 32.3108 16.2716 33.7283C16.2716 35.1459 17.4249 36.2991 18.8424 36.2991ZM18.8424 32.7985H36.1265C36.6392 32.7985 37.0564 33.2156 37.0564 33.7283C37.0564 34.2411 36.6392 34.6582 36.1265 34.6582H18.8424C18.3297 34.6582 17.9125 34.2411 17.9125 33.7283C17.9125 33.2156 18.3297 32.7985 18.8424 32.7985Z" fill="#44BEC8"/>
<path d="M18.8424 47.1522H36.1265C37.544 47.1522 38.6972 45.999 38.6972 44.5815C38.6972 43.164 37.544 42.0107 36.1265 42.0107H18.8424C17.4249 42.0107 16.2716 43.164 16.2716 44.5815C16.2716 45.999 17.4249 47.1522 18.8424 47.1522ZM18.8424 43.6516H36.1265C36.6392 43.6516 37.0564 44.0688 37.0564 44.5815C37.0564 45.0942 36.6392 45.5113 36.1265 45.5113H18.8424C18.3297 45.5113 17.9125 45.0942 17.9125 44.5815C17.9125 44.0688 18.3297 43.6516 18.8424 43.6516Z" fill="#44BEC8"/>
</g>
<defs>
<filter id="filter0_d_10_85" x="0.71167" y="0.812378" width="48.7573" height="60.0093" filterUnits="userSpaceOnUse" color-interpolation-filters="sRGB">
<feFlood flood-opacity="0" result="BackgroundImageFix"/>
<feColorMatrix in="SourceAlpha" type="matrix" values="0 0 0 0 0 0 0 0 0 0 0 0 0 0 0 0 0 0 127 0" result="hardAlpha"/>
<feOffset dx="4" dy="3"/>
<feGaussianBlur stdDeviation="0.5"/>
<feColorMatrix type="matrix" values="0 0 0 0 0.286275 0 0 0 0 0.188235 0 0 0 0 0.164706 0 0 0 0.55 0"/>
<feBlend mode="normal" in2="BackgroundImageFix" result="effect1_dropShadow_10_85"/>
<feBlend mode="normal" in="SourceGraphic" in2="effect1_dropShadow_10_85" result="shape"/>
</filter>
</defs>
</svg>
